<?xml version="1.0" encoding="utf-8"?>
<!-- Generator: Adobe Illustrator 15.1.0, SVG Export Plug-In . SVG Version: 6.00 Build 0)  -->
<!DOCTYPE svg PUBLIC "-//W3C//DTD SVG 1.1//EN" "http://www.w3.org/Graphics/SVG/1.1/DTD/svg11.dtd">
<svg version="1.1" xmlns="http://www.w3.org/2000/svg" xmlns:xlink="http://www.w3.org/1999/xlink" x="0px" y="0px" width="640px"
	 height="480px" viewBox="0 0 640 480" enable-background="new 0 0 640 480" xml:space="preserve">
<g id="stoppeklokke">
	<g id="Layer_1">
		<g id="Layer_6">
			<g id="Layer_12">
				<path fill="#4D4D4D" d="M77.826,131.049c0,0-15.707,9.661-16.374,21.182c0,0,12.784,14.164,16.196,13.987
					c0,0,11.136,2.59,14.382,10.47c0,0,15.223-14.678,15.556-18.344C107.586,158.344,95,152,95,148v-2
					C95,146,84.652,135.431,77.826,131.049z"/>
			</g>
			<g id="Layer_13">
				<path fill="#808080" d="M63.794,147.941L81.667,162H83l0.412,2.333L94.641,172l10.164-9.941l-12.472-9.912l-0.667-4.206
					l-15.333-14.118C76.333,133.824,64.921,138.883,63.794,147.941z"/>
			</g>
			<polygon fill="#F2F2F2" points="75,134 75,139 89.667,150 91.333,153.333 102.333,162.059 97.333,170.294 97,164 88.667,156 
				85,156 69.833,142.333 67,144 67,142 			"/>
		</g>
		<g id="Layer_6_copy">
			<g id="Layer_17">
				
					<ellipse fill="none" stroke="#4D4D4D" stroke-width="9" stroke-miterlimit="10" cx="189.569" cy="62.677" rx="46.765" ry="46.341"/>
			</g>
			<g id="Layer_17_copy">
				<g>
					<g>
						<g>
							<path opacity="0.1797" fill="#F2F2F2" d="M236.064,63.369c-0.091,1.604-0.183,3.207-0.274,4.811
								c-0.527,4.652-1.74,9.099-3.638,13.34c-2.192,5.65-6.285,10.317-10.425,14.598c-4.232,4.378-9.774,7.159-15.256,9.573
								c-5.809,2.559-12.245,2.994-18.482,3.107c-6.346,0.116-12.468-1.956-18.255-4.288c-5.651-2.278-10.33-6.375-14.638-10.543
								c-4.364-4.22-7.153-9.723-9.578-15.184c-2.548-5.738-2.977-12.107-3.089-18.274c-0.112-6.264,1.973-12.305,4.296-18.003
								c2.282-5.596,6.392-10.212,10.547-14.462c4.25-4.346,9.784-7.112,15.256-9.524c5.795-2.555,12.223-2.997,18.444-3.13
								c6.333-0.137,12.456,1.918,18.241,4.219c5.66,2.251,10.354,6.333,14.68,10.478c4.388,4.205,7.202,9.708,9.65,15.164
								c2.576,5.741,3.031,12.122,3.16,18.302c-0.003-0.159,0.595-1.089,0.571-1.534c-0.009-3.2-0.342-6.367-0.996-9.5
								c-0.637-3.046-1.568-6-2.795-8.861c-2.14-5.768-6.17-10.592-10.26-15.049c-4.192-4.569-9.759-7.552-15.267-10.174
								c-5.839-2.784-12.401-3.396-18.749-3.696c-6.471-0.306-12.792,1.665-18.762,3.869c-5.849,2.161-10.743,6.259-15.26,10.406
								c-4.581,4.205-7.549,9.813-10.148,15.348c-2.731,5.815-3.265,12.346-3.485,18.649c-0.223,6.399,1.835,12.618,4.122,18.474
								c2.242,5.744,6.386,10.51,10.569,14.897c4.257,4.465,9.854,7.335,15.38,9.846c5.823,2.644,12.309,3.171,18.591,3.38
								c6.371,0.211,12.562-1.754,18.423-3.977c5.721-2.167,10.514-6.164,14.944-10.243c4.494-4.14,7.447-9.596,10.035-15.026
								c2.71-5.683,3.415-12.151,3.784-18.33C237.381,62.396,236.094,62.842,236.064,63.369z"/>
							<path opacity="0.1797" fill="#F2F2F2" d="M236.264,64.004c-0.09,1.604-0.18,3.207-0.27,4.811
								c-0.723,6.238-2.616,12.025-5.682,17.361c-2.74,5.378-7.25,9.608-11.762,13.463c-4.649,3.971-10.463,6.211-16.172,8.099
								c-6.079,2.011-12.609,1.809-18.879,1.315c-6.22-0.491-12.032-3.125-17.48-5.937c-5.393-2.781-9.654-7.276-13.552-11.798
								c-3.985-4.625-6.249-10.407-8.156-16.1c-2.02-6.031-1.809-12.519-1.303-18.742c0.379-4.646,2.164-9.048,3.899-13.305
								c2.291-5.623,6.417-10.256,10.596-14.52c4.267-4.354,9.817-7.121,15.311-9.531c5.806-2.545,12.237-2.98,18.466-3.101
								c6.331-0.122,12.445,1.935,18.225,4.245c5.648,2.257,10.331,6.336,14.648,10.482c4.378,4.205,7.184,9.7,9.626,15.15
								c2.57,5.737,3.019,12.112,3.149,18.287c-0.005-0.246,0.738-1.39,0.703-1.957c-0.035-3.23-0.392-6.424-1.07-9.581
								c-0.67-3.063-1.635-6.032-2.892-8.904c-2.196-5.774-6.309-10.582-10.462-15.012c-4.241-4.523-9.849-7.444-15.384-10.004
								c-5.848-2.705-12.388-3.254-18.713-3.489c-6.428-0.241-12.686,1.752-18.599,3.987c-5.778,2.184-10.609,6.25-15.067,10.378
								c-4.517,4.18-7.458,9.713-10.031,15.193c-3.406,7.254-3.704,15.462-3.21,23.284c0.396,6.256,2.958,12.13,5.712,17.64
								c2.738,5.481,7.224,9.841,11.741,13.832c4.648,4.106,10.485,6.499,16.238,8.532c6.118,2.162,12.73,2.106,19.097,1.74
								c6.314-0.364,12.262-2.879,17.855-5.597c5.534-2.689,9.967-7.127,14.031-11.617c4.153-4.589,6.599-10.385,8.689-16.105
								c1.626-4.45,1.954-9.383,2.238-14.042C237.779,62.899,236.297,63.402,236.264,64.004z"/>
							<path opacity="0.1797" fill="#F2F2F2" d="M236.024,62.942c-0.345,3.132-0.691,6.263-1.035,9.395
								c-0.652,3.015-1.608,5.93-2.871,8.745c-2.19,5.65-6.278,10.317-10.417,14.597c-4.238,4.382-9.783,7.164-15.273,9.576
								c-5.83,2.562-12.284,2.984-18.54,3.083c-6.354,0.1-12.468-1.983-18.255-4.336c-5.648-2.296-10.315-6.403-14.614-10.585
								c-4.352-4.234-7.125-9.744-9.535-15.211c-2.529-5.737-2.945-12.096-3.045-18.255c-0.102-6.244,1.988-12.265,4.31-17.943
								c2.281-5.577,6.388-10.179,10.528-14.417c4.235-4.336,9.756-7.094,15.211-9.506c5.79-2.56,12.221-2.998,18.44-3.134
								c6.34-0.138,12.473,1.928,18.265,4.232c5.664,2.255,10.361,6.354,14.687,10.508c4.383,4.209,7.193,9.718,9.635,15.178
								c2.566,5.74,3.019,12.114,3.143,18.29c-0.002-0.094,0.489-0.872,0.472-1.225c0.013-3.184-0.296-6.336-0.929-9.456
								c-0.61-3.041-1.516-5.991-2.716-8.849C231.388,37.85,227.41,33,223.361,28.51c-4.164-4.616-9.719-7.648-15.22-10.325
								c-7.363-3.582-15.78-3.991-23.776-3.578c-6.429,0.332-12.479,2.855-18.169,5.625c-5.635,2.742-10.129,7.257-14.231,11.859
								c-4.186,4.696-6.612,10.59-8.64,16.437c-2.152,6.205-2.008,12.779-1.5,19.203c0.746,9.424,5.691,17.97,11.442,25.16
								c3.83,4.79,9.104,8.138,14.349,11.131c6.904,3.939,14.921,4.976,22.701,5.196c6.338,0.179,12.486-1.791,18.309-4.021
								c5.675-2.175,10.429-6.139,14.824-10.198c4.459-4.121,7.394-9.531,9.967-14.928c2.721-5.709,3.388-12.061,3.753-18.27
								C237.152,62.091,236.049,62.488,236.024,62.942z"/>
							<path opacity="0.1797" fill="#F2F2F2" d="M235.777,65.006c-0.087,1.605-0.175,3.21-0.263,4.815
								c-0.339,3.102-0.998,6.136-1.978,9.099c-2.966,10.829-10.473,18.13-19.062,24.139c-5.031,3.52-11.057,5.184-16.947,6.511
								c-6.257,1.409-12.761,0.579-18.963-0.542c-4.561-0.826-8.757-2.987-12.821-5.085c-5.396-2.788-9.662-7.277-13.562-11.808
								c-3.985-4.628-6.251-10.406-8.16-16.103c-2.017-6.026-1.813-12.507-1.311-18.727c0.375-4.64,2.151-9.038,3.879-13.29
								c2.285-5.62,6.392-10.256,10.565-14.522c4.269-4.363,9.813-7.141,15.315-9.553c5.828-2.557,12.277-2.993,18.532-3.102
								c6.367-0.11,12.501,1.976,18.305,4.323c5.657,2.29,10.333,6.396,14.641,10.58c4.358,4.234,7.141,9.746,9.554,15.218
								c2.536,5.746,2.955,12.112,3.055,18.283c0.006,0.342,0.386-0.854,0.333-0.692c0.192-0.576,0.695-1.507,0.647-2.13
								c-0.083-3.24-0.487-6.439-1.214-9.597c-0.718-3.056-1.729-6.011-3.031-8.868c-2.276-5.713-6.418-10.454-10.608-14.817
								c-4.262-4.44-9.825-7.282-15.347-9.768c-5.809-2.613-12.263-3.129-18.523-3.325c-6.342-0.198-12.5,1.755-18.334,3.97
								c-5.691,2.161-10.466,6.121-14.882,10.173c-4.476,4.109-7.438,9.514-10.035,14.904c-3.456,7.174-3.869,15.288-3.495,23.07
								c0.299,6.256,2.775,12.167,5.439,17.715c2.668,5.554,7.116,10.005,11.605,14.079c4.646,4.216,10.513,6.702,16.316,8.807
								c7.749,2.812,16.177,2.366,24.147,1.134c6.263-0.967,11.96-4.1,17.271-7.351c3.748-2.295,7.624-5.897,10.231-9.428
								c1.835-2.485,3.781-4.878,5.113-7.696c1.464-2.754,2.656-5.621,3.572-8.601c1.615-4.477,1.934-9.337,2.223-14.029
								c-0.006,0.087-1.12,1.017-1.157,1.055C236.658,64.016,235.794,64.679,235.777,65.006z"/>
							<path opacity="0.1797" fill="#F2F2F2" d="M235.973,64.306c-0.087,1.604-0.176,3.207-0.264,4.811
								c-0.676,6.109-2.566,11.888-5.671,17.336c-2.74,5.369-7.246,9.59-11.754,13.436c-4.645,3.964-10.448,6.198-16.152,8.083
								c-6.072,2.005-12.594,1.806-18.858,1.311c-6.215-0.491-12.022-3.118-17.467-5.926c-5.39-2.781-9.653-7.268-13.55-11.787
								c-3.985-4.622-6.253-10.396-8.164-16.087c-2.022-6.026-1.82-12.51-1.319-18.733c0.375-4.646,2.154-9.048,3.884-13.307
								c2.284-5.625,6.404-10.265,10.58-14.533c4.266-4.361,9.815-7.136,15.311-9.55c5.813-2.552,12.25-2.991,18.489-3.111
								c6.342-0.123,12.463,1.938,18.251,4.255c5.657,2.266,10.343,6.353,14.662,10.511c4.376,4.216,7.179,9.718,9.615,15.18
								c2.562,5.743,3.002,12.118,3.121,18.293c-0.005-0.304,0.84-1.596,0.797-2.249c-0.051-3.225-0.424-6.414-1.117-9.564
								c-0.684-3.055-1.661-6.011-2.93-8.872c-2.219-5.745-6.332-10.521-10.49-14.922c-4.239-4.486-9.823-7.381-15.341-9.918
								c-5.824-2.677-12.323-3.228-18.619-3.46c-6.397-0.236-12.622,1.729-18.511,3.943c-5.758,2.166-10.58,6.188-15.036,10.284
								c-4.519,4.155-7.479,9.648-10.075,15.103c-3.442,7.236-3.784,15.434-3.33,23.257c0.362,6.271,2.901,12.169,5.635,17.703
								c2.725,5.514,7.208,9.909,11.731,13.93c4.662,4.143,10.518,6.561,16.301,8.61c7.701,2.729,16.069,2.248,23.964,0.991
								c6.206-0.987,11.842-4.084,17.106-7.316c5.253-3.225,9.232-8.097,12.842-12.971c1.254-1.695,3.662-6.206,4.378-8.183
								c0.545-1.451,1.073-2.907,1.583-4.37c0.385-1.519,0.771-3.038,1.156-4.558c0.675-3.107,1.028-6.252,1.057-9.434
								c-0.002,0.047-0.938,0.834-0.959,0.855C236.675,63.499,235.99,64.019,235.973,64.306z"/>
							<path opacity="0.1797" fill="#F2F2F2" d="M235.917,63.713c-0.09,1.603-0.18,3.207-0.27,4.812
								c-0.725,6.244-2.624,12.035-5.694,17.372c-2.747,5.383-7.271,9.611-11.79,13.465c-4.658,3.971-10.482,6.201-16.2,8.082
								c-6.082,2.003-12.617,1.787-18.889,1.28c-6.216-0.502-12.022-3.147-17.465-5.968c-5.38-2.789-9.63-7.286-13.516-11.809
								c-3.971-4.623-6.227-10.395-8.125-16.081c-2.008-6.02-1.802-12.49-1.294-18.702c0.379-4.638,2.154-9.027,3.882-13.279
								c2.281-5.614,6.397-10.244,10.562-14.507c4.255-4.356,9.8-7.128,15.284-9.545c5.801-2.556,12.232-2.999,18.462-3.129
								c6.335-0.133,12.456,1.92,18.243,4.223c5.658,2.252,10.35,6.331,14.675,10.478c4.386,4.206,7.202,9.705,9.649,15.163
								c2.576,5.744,3.028,12.125,3.157,18.309c-0.005-0.219,0.692-1.29,0.661-1.817c-0.029-3.206-0.379-6.375-1.052-9.509
								c-0.654-3.043-1.604-5.992-2.847-8.847c-2.171-5.744-6.223-10.539-10.332-14.965c-4.202-4.527-9.758-7.476-15.257-10.065
								c-5.824-2.742-12.347-3.34-18.666-3.624c-6.437-0.288-12.72,1.665-18.659,3.862c-5.819,2.152-10.695,6.212-15.198,10.33
								c-4.572,4.181-7.547,9.747-10.158,15.253c-3.456,7.29-3.756,15.578-3.249,23.448c0.407,6.303,2.997,12.209,5.792,17.749
								c2.778,5.503,7.305,9.866,11.875,13.852c4.691,4.093,10.558,6.457,16.349,8.456c6.139,2.119,12.754,2.018,19.123,1.605
								c6.301-0.408,12.22-2.958,17.786-5.707c5.495-2.714,9.888-7.161,13.916-11.651c4.116-4.588,6.532-10.374,8.6-16.076
								c1.611-4.444,1.935-9.372,2.213-14.022C237.46,62.592,235.951,63.102,235.917,63.713z"/>
							<path opacity="0.1797" fill="#F2F2F2" d="M236.139,64.855c-0.087,1.604-0.174,3.208-0.263,4.812
								c-0.667,6.094-2.548,11.86-5.641,17.297c-2.729,5.358-7.216,9.572-11.709,13.411c-4.641,3.964-10.433,6.205-16.133,8.09
								c-6.079,2.011-12.604,1.817-18.876,1.32c-6.225-0.493-12.038-3.121-17.491-5.938c-5.394-2.785-9.657-7.276-13.556-11.802
								c-3.982-4.623-6.248-10.397-8.157-16.087c-2.022-6.022-1.817-12.503-1.319-18.72c0.372-4.642,2.152-9.045,3.881-13.3
								c2.29-5.628,6.406-10.269,10.587-14.537c4.281-4.369,9.841-7.142,15.355-9.551c5.838-2.549,12.295-2.971,18.555-3.07
								c6.352-0.101,12.471,1.981,18.259,4.324c5.646,2.287,10.314,6.389,14.616,10.562c4.354,4.223,7.134,9.725,9.55,15.182
								c2.537,5.731,2.962,12.089,3.073,18.245c0.005,0.327,0.37-0.801,0.317-0.646c0.183-0.543,0.646-1.405,0.604-1.992
								c-0.066-3.248-0.456-6.454-1.167-9.623c-0.707-3.068-1.705-6.038-2.998-8.908c-2.257-5.755-6.438-10.522-10.648-14.905
								c-4.278-4.458-9.892-7.313-15.436-9.809c-5.834-2.625-12.332-3.124-18.617-3.308c-6.366-0.187-12.547,1.804-18.394,4.046
								c-5.698,2.187-10.467,6.187-14.872,10.271c-4.457,4.131-7.39,9.56-9.958,14.965c-3.408,7.175-3.78,15.268-3.375,23.03
								c0.325,6.224,2.811,12.101,5.477,17.615c2.666,5.516,7.098,9.935,11.562,13.983c4.62,4.191,10.457,6.667,16.22,8.774
								c6.154,2.248,12.824,2.25,19.251,1.921c6.391-0.328,12.413-2.835,18.077-5.572c5.604-2.709,10.09-7.184,14.197-11.728
								c3.146-3.484,5.157-7.685,7.151-11.862c2.744-5.74,3.477-12.236,3.863-18.485c-0.004,0.065-1.017,0.916-1.046,0.944
								C236.918,63.969,236.156,64.552,236.139,64.855z"/>
						</g>
					</g>
				</g>
			</g>
			<g id="Layer_12_copy">
				<path fill="#4D4D4D" d="M210.738,59.564c0,0-28.816-12.018-43.49-1.759c0,0-3.211,31.133,0.722,35.605
					c0,0,9.003,17.671,3.001,29.728c0,0,34.362,6.497,39.164,3.396c0,0-6.04-23.283-1.198-27.16l2.421-1.938
					C211.358,97.437,212.875,73.105,210.738,59.564z"/>
			</g>
			<g id="Layer_13_copy">
				<path fill="#808080" d="M174.993,56.836l2.463,37.958l1.454,1.815l-2.376,2.822l2.959,22.719l23.114,4.2l-1.596-26.585
					l4.364-4.984l0.377-34.558C205.751,60.222,187.188,49.591,174.993,56.836z"/>
			</g>
			<polygon fill="#F2F2F2" points="204.084,58.577 198.032,63.424 200.702,94.053 198.484,99.553 199.912,122.985 184.493,124.162 
				191.749,117.606 192.35,98.508 188.352,93.516 188.364,59.621 183.259,57.38 185.68,55.442 			"/>
		</g>
		<radialGradient id="SVGID_1_" cx="196.2646" cy="248.1758" r="123.7976" gradientUnits="userSpaceOnUse">
			<stop  offset="0.7546" style="stop-color:#FFFFFF"/>
			<stop  offset="0.7639" style="stop-color:#FAFAFA"/>
			<stop  offset="0.8269" style="stop-color:#DBDBDB"/>
			<stop  offset="0.8883" style="stop-color:#C5C5C5"/>
			<stop  offset="0.947" style="stop-color:#B8B8B8"/>
			<stop  offset="1" style="stop-color:#B3B3B3"/>
		</radialGradient>
		<ellipse fill="url(#SVGID_1_)" stroke="#323232" cx="196.265" cy="248.176" rx="121.677" ry="125.883"/>
		
			<ellipse fill="none" stroke="#323232" stroke-width="6" stroke-miterlimit="10" cx="196.265" cy="248.176" rx="121.677" ry="125.883"/>
		<g id="Layer_2">
			
				<ellipse fill="none" stroke="#323232" stroke-width="10" stroke-miterlimit="10" cx="196.736" cy="248.824" rx="119.147" ry="122.646"/>
		</g>
		<g id="Layer_2_copy_3">
			
				<ellipse fill="none" stroke="#323232" stroke-width="10" stroke-miterlimit="10" cx="196.941" cy="248.236" rx="109.412" ry="114.411"/>
		</g>
		<g id="Layer_2_copy">
			<g>
				<g>
					<g>
						<path opacity="0.1797" fill="#F2F2F2" d="M314.596,249.516c-0.055,10.942-1.514,21.74-4.374,32.394
							c-1.401,5.115-3.128,10.119-5.184,15.009c-3.725,9.733-9.578,18.474-15.611,26.878c-5.997,8.354-13.754,15.235-21.61,21.756
							c-7.915,6.567-17.173,11.224-26.446,15.492c-9.511,4.379-19.869,6.422-30.124,8.079c-10.646,1.719-21.512,0.829-32.132-0.428
							c-29.162-58.786-58.322-117.57-87.484-176.356c1.24-2.282,2.479-4.563,3.719-6.846c2.609-4.459,5.488-8.737,8.638-12.831
							c7.506-10.418,17.485-18.726,27.786-26.208c8.328-6.05,17.881-10.092,27.425-13.743c9.851-3.769,20.402-5.111,30.818-6.076
							c10.699-0.992,21.434,0.609,31.908,2.573c10.207,1.914,19.78,6.226,29.027,10.764c9.207,4.521,17.232,11.083,24.91,17.768
							c7.768,6.766,13.906,15.156,19.688,23.595c5.921,8.644,9.82,18.464,13.352,28.25c1.653,5.083,2.971,10.253,3.955,15.507
							c1.781,8.062,1.956,16.371,2.134,24.579c-0.003-0.126,0.81-1.064,0.794-1.498c-0.01-5.56-0.379-11.095-1.113-16.606
							c-0.715-5.377-1.776-10.688-3.181-15.928c-2.415-10.322-7.099-19.943-12.016-29.251c-4.856-9.196-11.667-17.177-18.625-24.81
							c-6.964-7.643-15.511-13.607-24.125-19.195c-8.753-5.678-18.648-9.232-28.51-12.391c-10.252-3.282-21.09-4.021-31.76-4.385
							c-10.766-0.368-21.418,1.86-31.786,4.432c-10.144,2.515-19.521,7.388-28.56,12.466c-9.046,5.083-16.788,12.15-24.175,19.326
							c-3.612,3.741-6.972,7.697-10.081,11.866c-1.639,2.073-3.143,4.234-4.515,6.481c-5.458,8.997-10.688,18.326-13.704,28.485
							c-3.091,10.415-5.859,21.114-6.154,32.056c-0.151,5.607-0.486,11.257,0.104,16.859c0.267,2.76,0.556,5.518,0.869,8.273
							c1.812,10.528,0.79,5.583,3.271,15.917c1.261,5.254,3.333,10.203,5.254,15.229c3.746,9.799,9.611,18.617,15.668,27.094
							c6.032,8.441,13.814,15.422,21.723,22.026c7.953,6.643,17.251,11.383,26.579,15.724c9.552,4.444,19.959,6.563,30.269,8.285
							c10.692,1.785,21.616,0.962,32.301-0.232c7.854-0.878,15.424-3.351,22.889-5.794c9.83-3.218,18.749-8.676,27.331-14.308
							c8.614-5.654,15.824-13.158,22.681-20.75c6.98-7.729,12.136-16.88,16.929-26.042c4.95-9.461,7.692-19.869,10.069-30.198
							c1.848-8.034,2.135-16.44,2.512-24.625C315.917,248.535,314.615,248.993,314.596,249.516z"/>
						<path opacity="0.1797" fill="#F2F2F2" d="M314.795,250.15c-0.026,5.549-0.407,11.074-1.142,16.575
							c-1.729,17.034-7.691,30.564-15.376,44.814c-3.681,6.822-8.62,12.859-13.505,18.825c-4.874,5.95-10.822,10.899-16.708,15.787
							c-5.916,4.913-12.703,8.617-19.42,12.272c-6.816,3.708-14.274,6.007-21.648,8.272c-7.588,2.33-15.542,3.066-23.396,3.793
							c-8.057,0.744-16.155-0.187-24.142-1.12c-12.956-1.513-25.206-6.535-36.796-12.229c-6.901-3.388-13.054-8.097-19.127-12.737
							c-6.114-4.672-11.26-10.463-16.345-16.181c-5.154-5.797-9.146-12.503-13.093-19.131c-4.029-6.766-6.714-14.219-9.371-21.587
							c-2.736-7.592-3.964-15.618-5.179-23.549c-1.261-8.235-0.887-16.613-0.522-24.888c0.597-13.471,4.663-26.51,9.497-38.968
							c2.829-7.296,7.02-13.966,11.163-20.554c4.116-6.541,9.421-12.227,14.67-17.842c5.249-5.617,11.502-10.162,17.692-14.651
							c6.237-4.523,13.271-7.772,20.23-10.975c7.091-3.262,14.734-5.052,22.288-6.814c7.815-1.824,15.894-2,23.865-2.177
							c8.021-0.178,15.963,1.3,23.798,2.774c7.663,1.442,14.932,4.432,22.097,7.38c7.119,2.927,13.57,7.233,19.937,11.479
							c6.389,4.26,11.882,9.707,17.31,15.081c5.489,5.436,9.879,11.851,14.22,18.19c4.419,6.456,7.557,13.674,10.66,20.809
							c3.185,7.328,4.917,15.177,6.63,22.935c1.779,8.061,1.952,16.367,2.13,24.572c-0.006-0.2,0.985-1.321,0.967-1.862
							c-0.101-2.805-0.201-5.608-0.3-8.413c-0.378-5.498-1.111-10.948-2.201-16.349c-1.338-7.953-4.201-15.549-7.034-23.051
							c-2.79-7.39-6.96-14.158-11.084-20.843c-4.097-6.641-9.403-12.425-14.653-18.14c-5.251-5.713-11.527-10.354-17.739-14.937
							c-6.259-4.619-13.336-7.953-20.335-11.242c-7.131-3.35-14.833-5.217-22.446-7.055c-7.873-1.902-16.025-2.14-24.069-2.379
							c-8.094-0.241-16.124,1.194-24.042,2.623c-7.746,1.396-15.106,4.357-22.363,7.276c-7.204,2.898-13.747,7.195-20.204,11.43
							c-6.479,4.248-12.06,9.701-17.574,15.083c-5.574,5.439-10.046,11.878-14.467,18.24c-4.5,6.474-7.711,13.728-10.886,20.897
							c-3.258,7.359-5.056,15.256-6.833,23.06c-2.472,10.853-2.408,22.086-1.996,33.125c0.306,8.204,2.205,16.247,4.09,24.188
							c1.843,7.764,5.158,15.081,8.438,22.308c3.24,7.137,7.798,13.575,12.305,19.937c4.487,6.333,10.12,11.739,15.692,17.08
							c5.586,5.354,12.126,9.571,18.598,13.733c6.544,4.209,13.824,7.074,21.027,9.899c7.37,2.891,15.221,4.242,22.976,5.574
							c8.032,1.381,16.234,1.07,24.326,0.765c7.988-0.301,15.804-2.244,23.51-4.168c7.582-1.894,14.688-5.297,21.694-8.65
							c6.989-3.346,13.235-8.026,19.403-12.643c6.206-4.645,11.449-10.429,16.63-16.14c5.25-5.788,9.337-12.507,13.379-19.146
							c4.125-6.778,6.904-14.261,9.651-21.657c4.766-12.832,6.027-26.696,6.665-40.241
							C316.316,249.039,314.817,249.553,314.795,250.15z"/>
						<path opacity="0.1797" fill="#F2F2F2" d="M314.556,249.091c-0.029,8.276-0.862,16.458-2.501,24.544
							c-1.068,5.246-2.476,10.397-4.223,15.458c-3.095,10.008-8.405,19.158-13.918,27.978c-5.461,8.738-12.781,16.121-20.219,23.146
							c-9.359,8.839-20.784,15.064-32.375,20.392c-4.785,2.01-9.683,3.688-14.695,5.033c-56.583,6.471-98.104-8.513-124.561-44.948
							c-8.008-10.315-13.225-22.45-17.583-34.638c-3.637-10.178-4.898-21.002-5.808-31.69c-0.291-5.552-0.217-11.099,0.217-16.642
							c0.305-2.718,0.608-5.437,0.912-8.155c4.61-27.545,16.046-50.516,34.304-68.912c6.984-7.488,15.515-13.294,24.108-18.727
							c4.422-2.599,8.997-4.897,13.722-6.891c7.083-3.268,14.724-5.063,22.274-6.832c10.465-2.451,21.322-2.312,31.97-1.814
							c13.138,0.614,25.803,4.825,37.841,9.776c9.502,3.907,17.945,9.956,26.043,16.148c10.229,7.82,18.247,18.11,25.454,28.64
							c5.917,8.644,9.812,18.461,13.341,28.246c1.65,5.081,2.966,10.248,3.949,15.5c1.778,8.057,1.953,16.361,2.133,24.563
							c-0.001-0.067,0.668-0.863,0.657-1.214c-0.091-2.786-0.183-5.571-0.274-8.356c-0.357-5.461-1.066-10.876-2.126-16.245
							c-1.728-10.515-5.781-20.477-10.09-30.137c-3.188-7.145-7.688-13.602-12.143-19.982c-5.921-8.483-13.615-15.525-21.42-22.207
							c-5.892-5.045-12.68-8.886-19.398-12.677c-9.145-5.16-19.315-8.086-29.422-10.615c-7.878-1.971-16.05-2.271-24.114-2.57
							c-10.788-0.4-21.469,1.809-31.866,4.363c-7.639,1.875-14.799,5.283-21.857,8.641c-9.397,4.469-17.61,11.04-25.469,17.739
							c-7.952,6.778-14.258,15.239-20.191,23.749c-1.517,2.176-2.901,4.457-4.126,6.806c-2.438,4.672-5.059,9.334-6.883,14.3
							c-0.922,2.508-1.844,5.016-2.766,7.524c-1.704,5.144-3.066,10.377-4.089,15.699c-2.47,10.929-2.376,22.234-1.907,33.345
							c0.349,8.256,2.314,16.345,4.262,24.326c2.529,10.363,7.346,19.997,12.392,29.308c3.731,6.888,8.727,12.984,13.667,19.008
							c6.563,8.003,14.791,14.423,23.101,20.47c6.269,4.563,13.34,7.849,20.337,11.089c9.524,4.413,19.873,6.503,30.148,8.186
							c2.673,0.438,5.386,0.699,8.087,0.766c5.421,0.133,10.862,0.451,16.275-0.167c10.391-1.188,5.479-0.453,15.704-2.342
							c5.141-0.95,10.085-2.762,15.027-4.391c4.896-1.614,9.516-4.045,14.134-6.285c9.245-4.483,17.321-11.008,25.054-17.66
							c5.85-5.031,10.676-11.117,15.447-17.128c6.486-8.172,11.059-17.647,15.268-27.113c6.656-14.971,8.615-31.365,9.34-47.543
							C315.688,248.232,314.572,248.638,314.556,249.091z"/>
						<path opacity="0.1797" fill="#F2F2F2" d="M314.308,251.152c-0.007,5.554-0.381,11.08-1.124,16.583
							c-0.815,8.026-3.218,15.792-5.595,23.452c-1.72,4.961-3.753,9.79-6.1,14.486c-8.305,18.053-25.274,35.106-39.99,45.812
							c-4.229,2.872-8.628,5.458-13.196,7.755c-6.806,3.706-14.253,6.003-21.616,8.268c-5.068,1.372-10.208,2.392-15.417,3.058
							c-7.983,1.301-16.124,0.923-24.151,0.551c-13.131-0.61-25.791-4.814-37.827-9.76c-11.884-4.881-22.232-12.815-31.826-21.175
							c-9.736-8.483-17.108-19.281-23.657-30.277c-6.779-11.386-10.49-24.261-13.321-37.085c-1.003-5.367-1.652-10.777-1.95-16.229
							c-0.725-8.295,0.176-16.626,1.08-24.854c1.458-13.27,6.306-25.891,11.86-37.898c5.44-11.757,13.746-21.901,22.507-31.289
							c8.771-9.397,19.743-16.352,30.938-22.432c4.615-2.313,9.361-4.308,14.241-5.985c7.359-2.807,15.182-4.072,22.91-5.318
							c5.346-0.671,10.71-0.97,16.097-0.896c46.452-0.981,70.981,20.411,93.056,48.83c8.017,10.32,13.24,22.463,17.6,34.661
							c1.635,5.082,2.936,10.248,3.903,15.499c1.755,8.054,1.909,16.349,2.068,24.544c-0.004-0.225,0.677-1.236,0.761-1.41
							c0.167-0.348,0.645-1.043,0.628-1.475c-0.115-2.812-0.231-5.625-0.346-8.436c-0.411-5.513-1.182-10.975-2.312-16.385
							c-1.394-7.958-4.311-15.552-7.199-23.048c-2.838-7.375-7.053-14.119-11.219-20.782c-5.507-8.806-12.868-16.259-20.352-23.355
							c-5.618-5.329-12.197-9.502-18.702-13.622c-6.567-4.161-13.799-6.95-21.009-9.721c-2.459-0.945-4.991-1.733-7.551-2.339
							c-5.128-1.212-10.236-2.601-15.505-3.104c-8.039-0.768-16.185-1.524-24.261-0.614c-2.634,0.296-5.268,0.594-7.902,0.89
							c-5.218,0.771-10.358,1.894-15.423,3.366c-10.041,2.555-19.314,7.424-28.255,12.494c-6.696,3.797-12.579,8.85-18.389,13.834
							c-7.831,6.717-14.048,15.069-19.912,23.47c-4.486,6.429-7.7,13.629-10.878,20.749c-4.378,9.808-6.473,20.434-8.206,30.956
							c-1.356,8.241-1.083,16.644-0.814,24.944c0.266,8.182,2.112,16.212,3.947,24.143c1.797,7.761,5.062,15.086,8.291,22.32
							c4.255,9.531,10.55,17.974,17.013,26.078c4.838,6.065,10.766,11.138,16.633,16.149c7.893,6.74,17.165,11.578,26.458,16.023
							c7.122,3.406,14.825,5.328,22.439,7.219c10.559,2.623,21.546,2.618,32.329,2.248c8.033-0.278,15.899-2.215,23.651-4.134
							c10.167-2.515,19.563-7.395,28.619-12.484c9.059-5.088,16.817-12.17,24.209-19.362c9.409-9.15,16.324-20.571,22.344-32.104
							c3.709-7.108,6.008-14.843,8.284-22.485c3.133-10.53,3.806-21.641,4.345-32.536c-0.004,0.081-1.123,1.021-1.157,1.055
							C315.197,250.156,314.319,250.833,314.308,251.152z"/>
						<path opacity="0.1797" fill="#F2F2F2" d="M314.504,250.452c-0.012,5.551-0.389,11.074-1.129,16.575
							c-0.816,8.036-3.218,15.809-5.596,23.479c-5.939,19.158-15.906,32.203-28.513,45.736
							c-5.235,5.618-11.479,10.166-17.657,14.657c-6.229,4.527-13.255,7.778-20.208,10.984c-7.084,3.268-14.724,5.062-22.273,6.829
							c-7.813,1.828-15.891,2.01-23.86,2.192c-8.021,0.185-15.966-1.291-23.801-2.761c-12.74-2.391-24.552-8.191-35.674-14.593
							c-6.657-3.831-12.49-8.918-18.25-13.935c-5.812-5.062-10.591-11.174-15.314-17.211c-4.799-6.133-8.374-13.104-11.909-19.996
							c-3.62-7.055-5.84-14.716-8.033-22.29c-2.27-7.834-2.98-16.01-3.686-24.089c-0.725-8.299,0.177-16.632,1.083-24.866
							c1.46-13.275,6.314-25.904,11.875-37.914c3.272-7.067,7.851-13.429,12.378-19.712c4.508-6.256,10.147-11.582,15.728-16.845
							c5.593-5.275,12.127-9.409,18.593-13.491c6.539-4.126,13.798-6.908,20.979-9.651c7.35-2.806,15.163-4.076,22.879-5.328
							c7.992-1.295,16.137-0.909,24.172-0.528c13.134,0.62,25.792,4.834,37.827,9.79c7.122,2.932,13.576,7.245,19.944,11.495
							c6.392,4.267,11.884,9.719,17.311,15.101c5.486,5.439,9.874,11.862,14.212,18.205c4.417,6.459,7.55,13.68,10.648,20.82
							c3.181,7.329,4.907,15.179,6.615,22.938c1.774,8.06,1.942,16.364,2.116,24.568c-0.007-0.294,1.136-1.561,1.111-2.24
							c-0.415-10.977-0.046-5.749-1.172-16.601c-0.563-5.421-2-10.699-3.259-15.979c-0.626-2.628-1.432-5.227-2.392-7.755
							c-1.889-4.967-3.607-9.953-6.125-14.657c-4.842-9.049-2.41-4.831-7.804-13.533c-2.739-4.421-6.154-8.373-9.417-12.395
							c-6.508-8.021-14.735-14.512-22.996-20.584c-6.256-4.601-13.323-7.92-20.315-11.195c-9.545-4.468-19.952-6.601-30.261-8.345
							c-8.034-1.359-16.233-1.028-24.322-0.703c-10.606,0.426-20.918,3.386-30.928,6.646c-7.391,2.408-14.21,6.267-20.938,10.069
							c-8.981,5.077-16.67,12.116-24.008,19.262c-7.447,7.251-13.165,16.043-18.521,24.866c-5.504,9.068-8.891,19.215-11.907,29.307
							c-2.35,7.86-3.135,16.078-3.916,24.198c-1.064,11.074,0.402,22.208,2.227,33.101c1.329,7.935,4.176,15.517,6.994,23.006
							c3.697,9.822,9.517,18.671,15.524,27.186c4.479,6.349,10.107,11.771,15.677,17.131c7.458,7.177,16.395,12.559,25.373,17.555
							c6.843,3.808,14.345,6.199,21.764,8.557c10.253,3.257,21.084,3.973,31.746,4.317c8.1,0.26,16.137-1.156,24.064-2.566
							c10.324-1.837,20.034-6.099,29.414-10.596c7.001-3.356,13.257-8.053,19.433-12.683c4.034-3.234,7.845-6.711,11.434-10.433
							c1.87-1.837,3.621-3.773,5.254-5.811c6.336-7.965,3.435-4.074,9.264-12.437c3.002-4.308,5.294-9.042,7.716-13.678
							c3.718-7.111,6.029-14.841,8.31-22.489c3.138-10.518,3.815-21.612,4.335-32.498c-0.001,0.043-0.941,0.837-0.959,0.855
							C315.212,249.64,314.516,250.173,314.504,250.452z"/>
						<path opacity="0.1797" fill="#F2F2F2" d="M314.448,249.86c-0.025,5.55-0.406,11.075-1.143,16.575
							c-0.454,2.68-0.91,5.359-1.364,8.039c-2.718,13.121-7.395,25.383-14.029,36.787c-3.685,6.823-8.63,12.861-13.52,18.825
							c-4.878,5.951-10.832,10.898-16.723,15.785c-5.921,4.911-12.714,8.611-19.436,12.262c-6.821,3.706-14.284,5.999-21.663,8.258
							c-7.589,2.324-15.546,3.054-23.401,3.773c-8.058,0.737-16.154-0.201-24.14-1.141c-12.951-1.524-25.195-6.557-36.777-12.256
							c-6.895-3.393-13.04-8.103-19.108-12.747c-6.106-4.671-11.244-10.462-16.324-16.179c-5.146-5.794-9.132-12.495-13.074-19.12
							c-4.023-6.761-6.706-14.207-9.358-21.569c-2.733-7.585-3.958-15.604-5.174-23.528c-1.259-8.226-0.89-16.597-0.526-24.864
							c0.594-13.46,4.652-26.489,9.474-38.94c2.825-7.292,7.009-13.96,11.146-20.545c4.109-6.542,9.408-12.228,14.651-17.844
							c5.243-5.618,11.492-10.166,17.676-14.659c6.232-4.527,13.264-7.779,20.22-10.986c7.088-3.269,14.731-5.063,22.284-6.832
							c7.814-1.828,15.895-2.01,23.869-2.192c8.024-0.184,15.97,1.292,23.808,2.761c7.667,1.438,14.941,4.425,22.112,7.371
							c7.123,2.926,13.58,7.232,19.951,11.476c6.396,4.26,11.894,9.708,17.326,15.084c5.494,5.437,9.888,11.855,14.233,18.197
							c4.423,6.458,7.564,13.679,10.668,20.818c3.188,7.332,4.92,15.185,6.636,22.947c1.78,8.065,1.951,16.376,2.13,24.586
							c-0.004-0.184,0.945-1.262,0.927-1.777c-0.102-2.796-0.203-5.593-0.304-8.389c-0.379-5.481-1.113-10.914-2.201-16.299
							c-1.776-10.539-5.891-20.511-10.263-30.179c-4.301-9.51-10.638-17.92-17.141-25.991c-6.486-8.048-14.645-14.529-22.892-20.64
							c-6.235-4.623-13.287-7.968-20.263-11.268c-9.531-4.508-19.935-6.682-30.243-8.466c-10.706-1.852-21.659-1.077-32.373,0.065
							c-10.489,1.117-20.525,4.724-30.244,8.598c-7.221,2.879-13.782,7.159-20.256,11.377c-8.681,5.657-15.945,13.186-22.854,20.806
							c-7.036,7.756-12.229,16.957-17.054,26.168c-4.98,9.503-7.73,19.967-10.111,30.349c-2.494,10.879-2.438,22.144-2.03,33.214
							c0.382,5.502,1.123,10.954,2.22,16.358c0.467,2.702,1.099,5.359,1.898,7.973c3.103,10.108,6.595,20.258,12.199,29.314
							c5.38,8.694,2.698,4.65,8.608,12.969c3.008,4.232,6.653,7.95,10.158,11.752c7.019,7.614,15.614,13.538,24.273,19.08
							c2.194,1.403,4.494,2.67,6.857,3.774c4.704,2.204,9.332,4.554,14.31,6.115c10.064,3.154,20.425,5.982,31.052,6.288
							c10.692,0.308,5.563,0.335,16.252-0.102c10.615-0.432,20.935-3.401,30.951-6.674c9.855-3.218,18.796-8.687,27.397-14.328
							c8.635-5.667,15.859-13.19,22.729-20.803c3.353-3.959,6.44-8.112,9.268-12.463c1.495-2.17,2.855-4.419,4.081-6.743
							c2.432-4.656,5.005-9.233,6.833-14.182c1.84-4.98,3.852-9.947,5.044-15.145c1.383-5.256,2.422-10.579,3.117-15.969
							c0.679-5.479,1.08-10.976,1.197-16.494C315.997,248.731,314.47,249.254,314.448,249.86z"/>
						<path opacity="0.1797" fill="#F2F2F2" d="M314.67,251.002c-0.009,5.55-0.383,11.075-1.124,16.576
							c-0.726,5.356-1.804,10.643-3.232,15.854c-1.399,5.104-3.124,10.096-5.175,14.975c-5.94,15.519-14.907,26.796-25.636,38.323
							c-6.98,7.5-15.517,13.315-24.115,18.755c-4.424,2.601-9,4.898-13.729,6.894c-7.084,3.271-14.726,5.066-22.277,6.835
							c-10.465,2.451-21.322,2.312-31.97,1.816c-13.133-0.612-25.796-4.818-37.832-9.766c-11.881-4.881-22.227-12.812-31.82-21.169
							c-9.733-8.479-17.106-19.271-23.656-30.263c-5.397-9.059-8.678-19.17-11.593-29.226c-1.333-5.229-2.324-10.524-2.97-15.884
							c-1.265-8.229-0.898-16.604-0.537-24.876c0.587-13.47,4.646-26.508,9.47-38.968c4.699-12.137,12.391-22.838,20.582-32.803
							c6.527-7.941,14.708-14.299,22.972-20.289c4.25-2.876,8.67-5.461,13.26-7.758c2.338-1.074,4.674-2.146,7.012-3.219
							c51.377-14.182,92.702-6.648,123.977,22.6c9.697,8.5,17.034,19.3,23.546,30.298c2.517,4.572,4.732,9.285,6.648,14.137
							c6.28,14.53,8.354,32.333,8.662,47.446c-0.004-0.196,0.631-1.144,0.705-1.298c0.159-0.33,0.588-0.957,0.572-1.363
							c-0.109-2.814-0.219-5.628-0.33-8.442c-0.397-5.513-1.154-10.978-2.269-16.392c-1.373-7.968-4.278-15.574-7.151-23.084
							c-2.831-7.391-7.044-14.153-11.208-20.833c-5.51-8.833-12.89-16.305-20.395-23.416c-5.633-5.337-12.217-9.525-18.735-13.658
							c-8.806-5.583-18.732-9.034-28.619-12.087c-10.224-3.16-21.011-3.802-31.621-4.071c-2.745-0.069-5.504,0.05-8.23,0.36
							c-5.295,0.604-10.62,1.027-15.809,2.354c-9.943,2.545-5.264,1.176-14.978,4.378c-4.902,1.616-9.536,4.051-14.161,6.295
							c-4.615,2.239-8.867,5.239-13.131,8.047c-8.598,5.661-15.789,13.168-22.629,20.763c-5.203,5.774-9.253,12.468-13.255,19.083
							c-5.472,9.041-8.839,19.149-11.84,29.203c-2.336,7.83-3.121,16.014-3.902,24.103c-1.063,11.031,0.385,22.124,2.188,32.977
							c1.313,7.909,4.134,15.471,6.927,22.938c3.664,9.8,9.441,18.636,15.404,27.143c4.45,6.348,10.044,11.778,15.581,17.144
							c7.421,7.192,16.321,12.602,25.267,17.629c6.822,3.835,14.312,6.259,21.717,8.646c10.245,3.304,21.079,4.063,31.746,4.45
							c8.109,0.293,16.165-1.095,24.108-2.478c10.353-1.801,20.097-6.042,29.512-10.52c7.029-3.343,13.312-8.036,19.516-12.662
							c8.34-6.221,15.147-14.224,21.595-22.296c1.64-2.056,3.157-4.228,4.526-6.478c2.721-4.474,5.613-8.91,7.751-13.713
							c1.077-2.418,2.154-4.837,3.23-7.255c2.021-4.964,3.716-10.035,5.085-15.216c3.147-10.526,3.827-21.635,4.357-32.53
							c-0.002,0.06-1.02,0.917-1.045,0.942C315.457,250.109,314.682,250.704,314.67,251.002z"/>
					</g>
				</g>
			</g>
		</g>
		<g id="Layer_2_copy_2">
			<g>
				<g>
					<g>
						<path opacity="0.1797" fill="#BFBFBF" d="M306.601,250.26c-0.108,7.783-0.958,15.495-2.549,23.137
							c-1.318,7.445-4.155,14.526-6.945,21.501c-4.554,11.377-12.003,21.326-19.896,30.55c-7.86,9.187-17.915,16.151-28.201,22.297
							c-10.49,6.269-22.392,9.573-34.25,11.994c-12.395,2.53-25.199,1.545-37.58-0.306c-12.125-1.813-23.477-6.936-34.178-12.656
							c-4.167-2.411-8.159-5.083-11.977-8.014c-1.856-1.521-3.712-3.043-5.567-4.563c-33.65-37.013-45.727-75.479-36.229-115.403
							c2.489-12.161,8.031-23.444,14.168-34.107c6.032-10.482,14.577-19.236,23.492-27.253c8.957-8.056,19.772-13.632,30.73-18.367
							c11.325-4.893,23.683-6.577,35.868-7.396c12.537-0.84,24.987,1.792,36.931,5.256c11.642,3.375,22.122,9.839,31.915,16.779
							c9.86,6.99,17.726,16.384,24.842,26.02c7.318,9.909,11.971,21.468,15.818,33.057c4.05,12.207,4.831,25.191,4.807,37.933
							c-0.001,0.71,0.979-1.297,0.844-1.031c0.436-0.86,1.582-2.445,1.543-3.461c-0.1-2.658-0.201-5.317-0.302-7.976
							c-0.367-5.212-1.066-10.379-2.098-15.502c-1.693-10.036-5.589-19.538-9.729-28.756c-4.079-9.083-10.087-17.128-16.259-24.854
							c-6.167-7.721-13.933-13.952-21.789-19.83c-5.952-4.454-12.691-7.686-19.361-10.874c-9.128-4.364-19.108-6.474-28.993-8.204
							c-10.293-1.801-20.825-1.045-31.125,0.069c-10.106,1.092-19.765,4.609-29.112,8.383c-6.955,2.808-13.259,6.981-19.479,11.092
							c-8.349,5.519-15.303,12.855-21.909,20.273c-2.466,2.77-7.119,9.161-9.009,12.349c-2.597,4.379-5.287,8.627-7.308,13.323
							c-4.07,9.455-7.859,19.217-9.369,29.473c-0.769,5.219-1.721,10.544-1.795,15.841c-0.045,2.711-0.084,5.423-0.115,8.134
							c0.104,5.395,0.561,10.756,1.373,16.089c0.927,7.8,3.367,15.321,5.784,22.747c3.151,9.677,8.422,18.495,13.892,26.991
							c5.399,8.389,12.575,15.443,19.866,22.149c5.412,4.979,11.661,8.832,17.894,12.652c8.48,5.197,17.961,8.391,27.438,11.164
							c9.799,2.869,20.078,3.365,30.207,3.479c2.656,0.029,5.329-0.133,7.966-0.471c5.074-0.652,10.017-1.127,14.979-2.47
							c2.45-0.504,4.854-1.158,7.213-1.965c4.652-1.435,9.188-3.17,13.607-5.209c9.02-3.796,17.026-9.604,24.708-15.549
							c7.741-5.99,14.036-13.607,19.998-21.284c6.096-7.847,10.369-16.908,14.299-25.959c6.208-14.29,7.9-29.925,8.957-45.278
							c0,0.003-2.154,1.835-2.164,1.845C308.056,248.494,306.634,249.56,306.601,250.26z"/>
						<path opacity="0.1797" fill="#BFBFBF" d="M307.205,252.16c-0.057,5.26-0.458,10.494-1.201,15.701
							c-1.431,13.029-5.96,24.119-11.444,35.558c-3.166,6.604-7.585,12.509-11.949,18.337c-4.339,5.798-9.743,10.689-15.085,15.52
							c-5.353,4.841-11.573,8.582-17.727,12.274c-6.22,3.733-13.092,6.181-19.89,8.592c-6.955,2.468-14.314,3.477-21.581,4.47
							c-7.528,1.03-15.162,0.474-22.69-0.077c-7.427-0.542-14.638-2.633-21.743-4.697c-6.994-2.032-13.487-5.465-19.887-8.845
							c-12.824-6.771-23.327-17.171-32.544-28.157c-4.696-5.594-8.277-12.013-11.819-18.355c-3.618-6.48-5.958-13.57-8.274-20.579
							c-2.388-7.228-3.35-14.825-4.302-22.334c-0.99-7.798-0.446-15.692,0.094-23.491c0.876-12.683,5.024-24.878,9.877-36.504
							c5.657-13.552,15.04-25.16,25.228-35.523c5.067-5.155,11.052-9.276,16.976-13.347c5.965-4.097,12.649-6.975,19.261-9.812
							c6.731-2.887,13.948-4.374,21.079-5.838c7.375-1.514,14.957-1.471,22.436-1.436c7.527,0.036,14.932,1.638,22.237,3.232
							c7.142,1.56,13.873,4.569,20.505,7.534c13.214,5.903,24.335,15.602,34.204,25.962c5.009,5.258,8.963,11.403,12.875,17.476
							c3.986,6.187,6.754,13.056,9.492,19.847c2.813,6.979,4.254,14.41,5.68,21.757c1.481,7.636,1.455,15.466,1.437,23.202
							c-0.001,0.794,1.124-1.607,0.976-1.311c0.459-0.922,0.904-1.851,1.334-2.785c0.25-0.478,0.45-0.976,0.595-1.493
							c-0.112-2.693-0.226-5.387-0.337-8.081c-0.395-5.279-1.131-10.51-2.209-15.693c-1.771-10.146-5.797-19.729-10.07-29.018
							c-3.154-6.857-7.579-13.03-11.956-19.129c-5.807-8.092-13.312-14.76-20.921-21.077c-5.729-4.754-12.305-8.333-18.812-11.863
							c-8.831-4.791-18.612-7.417-28.323-9.665c-7.55-1.747-15.351-1.895-23.049-2.042c-7.771-0.148-15.393,1.314-22.971,2.776
							c-2.54,0.491-5.062,1.175-7.517,2.01c-4.784,1.627-9.437,3.052-13.979,5.315c-7.86,3.916-5.276,2.526-12.852,6.947
							c-4.238,2.473-8.111,5.664-11.977,8.655c-2.003,1.55-3.91,3.246-5.703,5.041c-3.528,3.536-7.032,6.851-10.098,10.821
							c-5.356,6.932-3.671,4.613-8.587,11.881c-4.225,6.246-7.214,13.219-10.169,20.114c-3.033,7.075-4.67,14.645-6.29,22.127
							c-2.252,10.406-2.091,21.145-1.596,31.701c0.368,7.842,2.25,15.517,4.12,23.094c2.429,9.846,7.012,18.997,11.815,27.848
							c3.554,6.548,8.302,12.35,13.001,18.083c6.246,7.622,14.072,13.741,21.981,19.508c5.972,4.354,12.71,7.49,19.379,10.583
							c9.1,4.221,19.016,6.219,28.835,7.845c7.662,1.27,15.473,0.925,23.181,0.581c10.121-0.448,19.948-3.32,29.484-6.478
							c7.052-2.335,13.549-6.056,19.959-9.724c8.57-4.902,15.891-11.68,22.875-18.557c5.308-5.226,9.56-11.403,13.762-17.505
							c2.713-4.217,5.147-8.589,7.305-13.115c1.189-2.312,2.226-4.688,3.11-7.124c1.747-4.796,3.643-9.556,4.764-14.557
							c1.305-5.051,2.275-10.165,2.912-15.344c0.66-5.137,1.127-10.29,1.401-15.462c-0.244,0.034-0.447,0.154-0.607,0.361
							c-0.635,0.582-1.255,1.182-1.862,1.796C308.942,250.106,307.238,251.395,307.205,252.16z"/>
						<path opacity="0.1797" fill="#BFBFBF" d="M306.475,248.988c-0.397,5.164-0.793,10.328-1.19,15.49
							c-0.714,5.077-1.777,10.079-3.188,15.008c-2.407,9.648-7.045,18.572-11.882,27.172c-4.77,8.478-11.386,15.735-18.122,22.653
							c-6.748,6.931-14.947,12.209-23.193,17.126c-8.389,5.002-17.786,7.938-27.131,10.499c-9.708,2.661-19.872,2.892-29.851,2.791
							c-28.146-60.837-56.292-121.673-84.438-182.51c1.451-1.916,2.902-3.831,4.353-5.747c3.009-3.728,6.241-7.25,9.694-10.568
							c6.696-6.853,14.801-12.1,22.958-16.994c8.302-4.981,17.598-7.946,26.846-10.543c9.635-2.705,19.729-3.012,29.651-2.983
							c10.02,0.029,19.834,2.496,29.374,5.275c9.331,2.719,17.858,7.613,26.06,12.677c8.209,5.068,15.138,11.922,21.74,18.86
							c6.7,7.043,11.741,15.459,16.446,23.891c4.836,8.667,7.669,18.263,10.164,27.798c2.609,9.978,2.907,20.376,2.889,30.615
							c-0.001,0.64,0.858-1.045,0.74-0.815c0.37-0.72,1.271-1.974,1.243-2.827c-0.086-2.636-0.172-5.271-0.259-7.906
							c-0.333-5.171-0.995-10.299-1.985-15.384c-1.214-7.5-3.834-14.683-6.429-21.78c-2.562-7.011-6.41-13.46-10.218-19.834
							c-5.063-8.476-11.894-15.712-18.853-22.619c-5.255-5.215-11.438-9.359-17.56-13.451c-8.326-5.564-17.776-9.092-27.202-12.237
							c-7.325-2.441-15.045-3.319-22.667-4.186c-10.428-1.185-20.948,0.225-31.203,1.983c-7.535,1.294-14.702,4.14-21.762,6.944
							c-7.03,2.79-13.405,6.973-19.693,11.092c-10.608,6.949-19.087,16.469-26.826,26.359c-1.612,2.058-3.099,4.232-4.429,6.481
							c-2.586,4.37-5.359,8.75-7.365,13.436c-1.013,2.368-2.025,4.736-3.038,7.104c-1.893,4.857-3.463,9.818-4.707,14.879
							c-2.911,10.361-3.371,21.21-3.466,31.89c-0.074,8.111,1.543,16.169,3.107,24.079c1.52,7.682,4.513,14.976,7.475,22.176
							c2.903,7.055,7.12,13.472,11.292,19.808c5.485,8.335,12.722,15.329,20.07,21.976c5.484,4.961,11.844,8.812,18.139,12.613
							c8.451,5.104,17.912,8.201,27.325,10.931c7.261,2.105,14.929,2.604,22.42,3.138c7.624,0.545,15.195-0.471,22.717-1.498
							c2.558-0.35,5.103-0.87,7.586-1.563c4.786-1.335,9.511-2.493,14.098-4.46c7.927-3.396,5.349-2.195,13.023-6.096
							c6.476-3.291,12.242-7.792,17.938-12.235c5.725-4.467,10.544-9.961,15.308-15.389c6.462-7.36,11.218-16.015,15.642-24.68
							c3.417-6.694,5.53-13.953,7.62-21.133c2.89-9.931,3.516-20.472,4.171-30.729c0.004-0.06-1.885,1.565-1.873,1.552
							C307.664,247.489,306.503,248.352,306.475,248.988z"/>
						<path opacity="0.1797" fill="#BFBFBF" d="M305.754,255.155c-0.018,5.273-0.403,10.521-1.155,15.741
							c-0.724,5.051-1.796,10.027-3.216,14.928c-1.386,4.778-3.086,9.441-5.102,13.989c-1.065,2.205-2.131,4.41-3.197,6.615
							c-8.158,15.247-18.941,27.856-32.351,37.828c-7.509,5.963-16.235,10.111-24.968,13.896
							c-11.294,4.897-23.629,6.583-35.788,7.405c-10.061,0.68-20.086-1.089-29.86-3.204c-11.906-2.576-22.846-8.363-33.113-14.687
							c-10.286-6.337-18.719-15.226-26.412-24.396c-7.874-9.388-13.213-20.578-17.752-31.847
							c-3.776-9.367-5.383-19.422-6.656-29.368c-1.654-12.915,0.053-25.985,2.599-38.634c1.974-9.799,6.124-19,10.501-27.905
							c5.38-10.941,13.42-20.301,21.875-28.939c6.76-6.905,14.947-12.181,23.187-17.098c10.512-6.273,22.433-9.581,34.313-12
							c12.432-2.53,25.27-1.519,37.682,0.354c4.87,0.914,9.653,2.159,14.349,3.737c44.59,13.283,76.899,74.09,76.524,114.487
							c0.275-0.213,0.474-0.491,0.594-0.832c0.582-1.125,1.142-2.259,1.685-3.403c0.487-1.016,1.953-3.153,1.878-4.426
							c-0.159-2.718-0.318-5.433-0.478-8.148c-0.5-5.322-1.348-10.587-2.545-15.797c-1.494-7.649-4.452-14.917-7.377-22.093
							c-2.868-7.034-7.041-13.441-11.168-19.769c-5.431-8.326-12.606-15.329-19.89-21.994c-5.453-4.991-11.835-8.839-18.125-12.641
							c-8.399-5.077-17.81-8.156-27.174-10.839c-2.473-0.708-5.003-1.268-7.547-1.637c-4.986-0.724-9.982-1.614-15.044-1.65
							c-7.646-0.055-15.376-0.08-22.917,1.438c-8.745,1.759-5.737,1.053-14.306,3.39c-9.437,2.572-18.122,7.298-26.496,12.208
							c-6.266,3.673-11.758,8.508-17.184,13.278c-7.313,6.429-13.109,14.363-18.576,22.341c-4.186,6.108-7.183,12.926-10.149,19.669
							c-4.091,9.303-6.054,19.358-7.681,29.318c-1.276,7.82-1.025,15.789-0.778,23.666c0.244,7.775,1.973,15.413,3.691,22.958
							c1.683,7.395,4.752,14.386,7.789,21.293c4.011,9.12,9.958,17.218,16.072,24.998c4.585,5.838,10.22,10.735,15.798,15.572
							c7.522,6.525,16.385,11.224,25.275,15.545c6.826,3.319,14.227,5.197,21.541,7.047c10.162,2.57,20.746,2.577,31.132,2.222
							c7.752-0.268,15.34-2.158,22.817-4.028c9.815-2.455,18.871-7.227,27.589-12.193c8.726-4.972,16.18-11.884,23.259-18.901
							c9.051-8.975,15.65-20.119,21.368-31.388c8.3-16.355,10.686-34.738,12.119-52.758c-0.325,0.105-0.598,0.296-0.819,0.573
							c-0.899,0.85-1.786,1.715-2.655,2.595c-0.879,0.872-1.741,1.76-2.588,2.662C306.048,254.557,305.858,254.83,305.754,255.155z"
							/>
						<path opacity="0.1797" fill="#BFBFBF" d="M306.341,253.059c-0.029,5.264-0.419,10.501-1.171,15.71
							c-1.592,14.53-8.152,29.659-15.037,41.864c-3.574,6.337-8.336,11.905-13.04,17.402c-4.689,5.481-10.375,9.993-15.998,14.449
							c-5.65,4.476-12.094,7.795-18.471,11.068c-6.469,3.32-13.511,5.3-20.472,7.25c-7.164,2.007-14.637,2.504-22.011,2.997
							c-7.574,0.505-15.138-0.568-22.603-1.645c-12.108-1.747-23.462-6.795-34.173-12.443c-12.817-6.76-23.32-17.144-32.541-28.112
							c-4.698-5.588-8.282-11.998-11.829-18.334c-3.622-6.472-5.971-13.555-8.293-20.559c-2.396-7.221-3.366-14.812-4.328-22.316
							c-1-7.794-0.466-15.687,0.061-23.483c0.858-12.682,4.987-24.882,9.82-36.514c5.637-13.567,15.006-25.195,25.185-35.577
							c5.064-5.167,11.051-9.301,16.978-13.381c5.968-4.112,12.659-7,19.279-9.845c6.742-2.9,13.971-4.392,21.115-5.862
							c7.391-1.52,14.99-1.477,22.486-1.439c7.543,0.038,14.965,1.647,22.287,3.251c7.159,1.568,13.902,4.594,20.547,7.572
							c13.232,5.931,24.359,15.671,34.226,26.069c5.004,5.275,8.951,11.436,12.854,17.523c3.975,6.199,6.729,13.079,9.455,19.878
							c2.799,6.984,4.223,14.418,5.635,21.767c1.466,7.635,1.424,15.46,1.393,23.19c-0.003,0.861,1.243-1.854,1.086-1.542
							c0.53-1.069,1.045-2.146,1.546-3.229c0.222-0.479,0.731-1.335,0.701-1.95c-0.469-9.616-0.197-6.287-1.289-15.789
							c-0.6-5.214-2.024-10.25-3.292-15.319c-0.643-2.568-1.458-5.104-2.426-7.568c-1.867-4.751-3.574-9.507-6.042-13.999
							c-4.256-7.747-2.821-5.319-7.547-12.761c-2.68-4.217-5.97-7.95-9.147-11.779c-6.324-7.618-14.222-13.721-22.209-19.454
							c-8.033-5.766-17.293-9.632-26.477-13.085c-9.474-3.564-19.611-4.798-29.614-5.675c-10.262-0.898-20.55,0.699-30.582,2.634
							c-7.339,1.416-14.296,4.31-21.156,7.161c-9.085,3.777-17.155,9.59-24.896,15.541c-7.809,6.003-14.159,13.656-20.173,21.368
							c-6.144,7.882-10.45,16.994-14.41,26.094c-3.062,7.034-4.738,14.568-6.397,22.014c-2.31,10.373-2.219,21.091-1.791,31.629
							c0.421,10.411,3.175,20.559,6.226,30.442c2.976,9.642,8.044,18.471,13.312,26.993c3.917,6.336,8.985,11.855,14,17.311
							c6.698,7.286,14.903,12.955,23.173,18.264c8.4,5.39,17.885,8.736,27.336,11.699c9.825,3.083,20.194,3.718,30.4,3.993
							c7.759,0.209,15.452-1.204,23.035-2.607c9.885-1.83,19.159-5.993,28.114-10.378c8.923-4.37,16.694-10.731,24.128-17.21
							c2.75-2.397,8.116-8.095,10.36-10.974c5.43-6.962,3.703-4.602,8.685-11.904c2.849-4.176,4.998-8.716,7.285-13.2
							c8.323-16.325,10.812-34.629,12.149-52.647c-0.278,0.062-0.509,0.212-0.695,0.447c-0.743,0.69-1.471,1.396-2.183,2.119
							C308.458,250.627,306.374,252.214,306.341,253.059z"/>
						<path opacity="0.1797" fill="#BFBFBF" d="M306.164,251.285c-0.054,5.264-0.457,10.5-1.204,15.71
							c-1.776,16.1-7.593,28.692-15.101,41.988c-3.589,6.355-8.371,11.938-13.095,17.448c-4.709,5.494-10.419,10.013-16.067,14.475
							c-5.673,4.481-12.146,7.797-18.547,11.067c-6.493,3.316-13.559,5.283-20.542,7.22c-7.182,1.993-14.671,2.469-22.062,2.941
							c-7.583,0.484-15.153-0.613-22.623-1.714c-12.104-1.785-23.445-6.869-34.141-12.554
							c-12.781-6.792-23.242-17.192-32.424-28.172c-4.673-5.59-8.238-11.994-11.764-18.324c-3.6-6.467-5.931-13.537-8.237-20.528
							c-2.376-7.207-3.334-14.78-4.285-22.269c-0.988-7.776-0.45-15.647,0.083-23.423c0.867-12.65,4.988-24.818,9.812-36.421
							c5.625-13.535,14.968-25.138,25.116-35.503c5.051-5.159,11.021-9.29,16.931-13.369c5.953-4.109,12.627-7.001,19.23-9.852
							c6.726-2.904,13.939-4.407,21.068-5.887c7.377-1.532,14.965-1.506,22.45-1.485c7.535,0.021,14.951,1.609,22.267,3.193
							c7.157,1.549,13.902,4.551,20.55,7.509c13.246,5.891,24.4,15.595,34.297,25.962c5.023,5.262,8.99,11.416,12.912,17.495
							c3.998,6.196,6.774,13.077,9.519,19.878c2.822,6.99,4.266,14.433,5.694,21.792c1.485,7.65,1.458,15.492,1.437,23.24
							c-0.001,0.774,1.092-1.534,0.947-1.244c0.439-0.88,0.864-1.766,1.275-2.658c0.242-0.456,0.431-0.932,0.566-1.428
							c-0.06-5.313-0.462-10.601-1.208-15.861c-0.729-5.134-1.786-10.198-3.168-15.195c-2.388-9.837-6.923-18.991-11.678-27.847
							c-4.693-8.742-11.233-16.316-17.913-23.561c-8.364-9.071-18.847-15.824-29.552-21.741c-8.746-4.833-18.449-7.535-28.086-9.86
							c-10.062-2.426-20.511-2.356-30.765-1.933c-10.166,0.421-20.043,3.286-29.629,6.438
							c-11.821,3.888-22.351,10.868-32.169,18.319c-7.932,6.02-14.383,13.733-20.489,21.51c-6.245,7.952-10.609,17.17-14.619,26.374
							c-4.158,9.542-6.077,19.863-7.645,30.077c-1.639,10.672-0.801,21.464,0.383,32.111c0.577,5.193,2.008,10.306,3.254,15.359
							c0.945,3.833,3.539,11.149,5.21,14.736c2.152,4.62,4.131,9.22,6.867,13.547c1.254,2.18,2.599,4.302,4.035,6.361
							c5.154,7.107,3.44,4.894,9.027,11.646c6.333,7.657,14.256,13.788,22.271,19.546c4.033,2.898,8.463,5.1,12.822,7.438
							c3.394,1.818,10.289,4.661,13.972,5.768c4.842,1.45,9.531,3.017,14.548,3.799c2.49,0.531,4.998,0.918,7.524,1.159
							c9.207,0.79,5.939,0.617,15.236,0.764c5.163,0.082,10.316-0.733,15.417-1.369c3.827-0.478,11.285-2.22,14.944-3.473
							c9.329-3.193,18.644-6.805,26.873-12.364c4.118-2.782,8.152-5.34,11.896-8.64c1.936-1.516,3.771-3.141,5.507-4.872
							c6.148-6.155,4.17-4.056,9.924-10.593c3.251-3.691,5.943-7.928,8.695-11.983c2.141-3.158,5.764-9.782,7.271-13.28
							c1.993-4.619,4.137-9.215,5.534-14.069c1.576-4.892,2.836-9.861,3.783-14.914c1.665-7.557,2.025-15.49,2.573-23.184
							c-0.248,0.036-0.454,0.159-0.617,0.368c-0.646,0.593-1.277,1.201-1.894,1.826
							C307.941,249.198,306.198,250.515,306.164,251.285z"/>
						<path opacity="0.1797" fill="#BFBFBF" d="M306.839,254.707c-0.021,5.266-0.406,10.504-1.153,15.717
							c-0.721,5.056-1.79,10.039-3.207,14.945c-3.38,11.73-8.609,22.686-15.689,32.865c-2.76,3.952-5.762,7.711-9.006,11.275
							c-6.234,7.308-14.001,13.095-21.835,18.53c-9.951,6.905-21.479,11.021-33.028,14.265c-9.635,2.704-19.731,3.013-29.654,2.985
							c-12.472-0.034-24.626-3.524-36.212-7.773c-9.083-3.331-17.233-8.741-25.059-14.296c-9.854-6.995-17.714-16.39-24.823-26.027
							c-5.821-7.891-9.808-16.939-13.455-25.97c-3.781-9.362-5.396-19.412-6.674-29.354c-1.334-10.367-0.297-20.865,1.078-31.149
							c1.671-12.478,6.532-24.266,12.046-35.457c4.323-8.775,10.529-16.448,16.881-23.797c7.929-9.174,18.026-16.125,28.363-22.258
							c8.399-4.981,17.794-7.911,27.14-10.465c4.824-1.144,9.701-1.949,14.637-2.417c2.505-0.151,5.011-0.302,7.517-0.452
							c2.544,0.025,5.087,0.05,7.631,0.073c35.292,39.876,70.583,79.752,105.875,119.627c0.262-0.188,0.448-0.441,0.559-0.762
							c0.537-1.035,1.055-2.082,1.553-3.137c0.463-0.971,1.773-2.888,1.71-4.091c-0.143-2.722-0.285-5.442-0.428-8.164
							c-0.457-5.328-1.262-10.602-2.417-15.823c-1.435-7.68-4.355-14.985-7.244-22.198c-2.839-7.086-7.011-13.542-11.137-19.916
							c-5.444-8.413-12.677-15.47-20.024-22.178c-5.499-5.019-11.888-8.911-18.217-12.75c-6.374-3.867-13.423-6.418-20.395-8.933
							c-7.104-2.563-14.628-3.646-22.059-4.712c-5.12-0.558-10.252-0.759-15.399-0.603c-2.58,0.161-5.16,0.33-7.738,0.505
							c-7.465,1.008-15.018,2.039-22.165,4.554c-8.191,2.883-5.588,1.866-13.548,5.278c-4.494,1.926-8.634,4.556-12.822,7.041
							c-12.603,7.479-22.742,18.399-31.592,29.884c-4.506,5.847-7.869,12.468-11.194,19.016c-4.561,8.98-7.069,18.818-9.239,28.582
							c-1.7,7.65-1.906,15.528-2.113,23.318c-0.209,7.845,1.086,15.638,2.378,23.336c1.258,7.5,3.927,14.676,6.569,21.765
							c3.471,9.313,8.925,17.725,14.56,25.83c4.209,6.057,9.503,11.254,14.743,16.39c7.041,6.898,15.492,12.109,23.995,16.956
							c6.5,3.707,13.646,6.064,20.711,8.387c9.802,3.221,20.182,3.99,30.405,4.393c7.791,0.308,15.537-1.021,23.168-2.343
							c7.489-1.296,14.611-4.125,21.631-6.912c6.985-2.775,13.326-6.927,19.58-11.015c8.396-5.488,15.398-12.812,22.051-20.218
							c6.824-7.595,11.827-16.613,16.463-25.628c8.383-16.308,10.851-34.684,12.244-52.698c-0.299,0.08-0.548,0.247-0.749,0.502
							c-0.811,0.762-1.607,1.538-2.389,2.329C309.195,252.028,306.874,253.811,306.839,254.707z"/>
					</g>
				</g>
			</g>
		</g>
		<g id="Layer_2_copy_4">
			
				<ellipse fill="none" stroke="#DADADA" stroke-width="5" stroke-miterlimit="10" cx="197.021" cy="248.236" rx="102.496" ry="107.352"/>
		</g>
	</g>
	<g id="Layer_5">
	</g>
	<g id="tall">
		<line fill="none" stroke="#323232" stroke-width="3" x1="104.805" y1="201.328" x2="114.588" y2="206.176"/>
		<line fill="none" stroke="#323232" stroke-width="3" x1="277.177" y1="290.294" x2="286.961" y2="295.143"/>
		<line fill="none" stroke="#323232" stroke-width="3" x1="94.641" y1="253.327" x2="104.805" y2="253.235"/>
		<line fill="none" stroke="#323232" stroke-width="3" x1="287.235" y1="244" x2="297.395" y2="243.908"/>
		<line fill="none" stroke="#323232" stroke-width="3" x1="140.471" y1="162.059" x2="146.353" y2="170.294"/>
		<line fill="none" stroke="#323232" stroke-width="3" x1="247.529" y1="327.117" x2="253.411" y2="335.353"/>
		<line fill="none" stroke="#323232" stroke-width="3" x1="193.5" y1="144" x2="193.5" y2="156"/>
		<line fill="none" stroke="#323232" stroke-width="3" x1="202.5" y1="341" x2="202.5" y2="353"/>
		<line fill="none" stroke="#323232" stroke-width="3" x1="112.882" y1="304.299" x2="121.706" y2="296.667"/>
		<line fill="none" stroke="#323232" stroke-width="3" x1="273.015" y1="201.025" x2="282.282" y2="192.68"/>
		<line fill="none" stroke="#323232" stroke-width="3" x1="244.588" y1="156" x2="239.882" y2="166.176"/>
		<line fill="none" stroke="#323232" stroke-width="3" x1="155.471" y1="330.752" x2="150.766" y2="340.927"/>
		<text transform="matrix(1 0 0 1 181.7061 173.1763)" font-family="'MyriadPro-Regular'" font-size="24">60</text>
		<text transform="matrix(1 0 0 1 229.9414 185.5293)" font-family="'MyriadPro-Regular'" font-size="24">5</text>
		<text transform="matrix(1 0 0 1 248.5293 212.0581)" font-family="'MyriadPro-Regular'" font-size="24">10</text>
		<text transform="matrix(1 0 0 1 263.5293 251.9414)" font-family="'MyriadPro-Regular'" font-size="24">15</text>
		<text transform="matrix(1 0 0 1 250.4702 294.1426)" font-family="'MyriadPro-Regular'" font-size="24">20</text>
		<text transform="matrix(1 0 0 1 230.9414 323.2344)" font-family="'MyriadPro-Regular'" font-size="24">25</text>
		<text transform="matrix(1 0 0 1 190.5 338.9277)" font-family="'MyriadPro-Regular'" font-size="24">30</text>
		<text transform="matrix(1 0 0 1 148.353 327.1172)" font-family="'MyriadPro-Regular'" font-size="24">35</text>
		<text transform="matrix(1 0 0 1 123.7061 300.4824)" font-family="'MyriadPro-Regular'" font-size="24">40</text>
		<text transform="matrix(1 0 0 1 109.6968 260.8818)" font-family="'MyriadPro-Regular'" font-size="24">45</text>
		<text transform="matrix(1 0 0 1 117.2939 219.7061)" font-family="'MyriadPro-Regular'" font-size="24">50</text>
		<text transform="matrix(1 0 0 1 140.4707 190.6797)" font-family="'MyriadPro-Regular'" font-size="24">55</text>
	</g>
</g>
<g id="viser">
	<g>
		<g>
			<path fill="#333333" d="M199.5,251c0-24.333,0-48.667,0-73c0-4.514-7-4.514-7,0c0,24.333,0,48.667,0,73
				C192.5,255.514,199.5,255.514,199.5,251L199.5,251z"/>
		</g>
	</g>
	<g>
		<g>
			<g>
				<path opacity="0.1797" fill="#E6E6E6" d="M196.858,249.045c0.032-22.877,0.013-45.753,0.02-68.63c0,0.078-0.9,0.99-0.933,1.031
					c-0.158,0.194-0.816,0.806-0.816,1.124c-0.078,22.809,0.151,45.625-0.222,68.432c0-0.046,1.012-0.909,1.028-0.926
					C196.078,249.934,196.858,249.328,196.858,249.045z"/>
				<path opacity="0.1797" fill="#E6E6E6" d="M197.016,249.723c0.05-22.872,0.02-45.745,0.029-68.618
					c0,0.054-0.804,0.875-0.827,0.904c-0.148,0.181-0.711,0.703-0.712,0.995c-0.074,22.812,0.142,45.628-0.209,68.436
					C195.306,250.966,197.015,250.369,197.016,249.723z"/>
				<path opacity="0.1797" fill="#E6E6E6" d="M196.901,248.535c0.022-22.88,0.007-45.761,0.011-68.642c0,0.103-1,1.108-1.042,1.16
					c-0.169,0.207-0.926,0.91-0.927,1.254c-0.081,22.808,0.161,45.625-0.234,68.427c0.001-0.067,1.124-1.021,1.149-1.048
					C196.009,249.536,196.901,248.841,196.901,248.535z"/>
				<path opacity="0.1797" fill="#E6E6E6" d="M196.659,250.594c0.091-22.848,0.032-45.695,0.05-68.541
					c0,0.03-1.018,0.811-1.018,1.157c-0.054,22.836,0.124,45.678-0.165,68.513C195.531,251.456,196.658,251.032,196.659,250.594z"/>
				<path opacity="0.1797" fill="#E6E6E6" d="M196.739,250.011c0.086-22.871,0.033-45.742,0.046-68.611
					c0,0.438-1.307,1.028-1.308,1.622c-0.068,22.813,0.137,45.634-0.194,68.445C195.289,251.083,196.738,250.565,196.739,250.011z"
					/>
				<path opacity="0.1797" fill="#E6E6E6" d="M196.666,249.434c0.055-22.872,0.021-45.745,0.032-68.617
					c0,0.051-0.792,0.861-0.814,0.889c-0.146,0.182-0.697,0.693-0.699,0.983c-0.072,22.81,0.141,45.63-0.208,68.437
					C194.984,250.66,196.665,250.07,196.666,249.434z"/>
				<path opacity="0.1797" fill="#E6E6E6" d="M196.943,250.522c0.101-22.869,0.037-45.739,0.053-68.608
					c0,0.382-1.179,0.926-1.181,1.464c-0.062,22.816,0.134,45.638-0.183,68.451C195.636,251.5,196.94,251.025,196.943,250.522z"/>
			</g>
		</g>
	</g>
</g>
<g id="prikk_i_midten">
	<g id="Layer_11">
		<radialGradient id="SVGID_2_" cx="196.0439" cy="250.2188" r="7.3837" gradientUnits="userSpaceOnUse">
			<stop  offset="0" style="stop-color:#B3B3B3"/>
			<stop  offset="1" style="stop-color:#000000"/>
		</radialGradient>
		<ellipse fill="url(#SVGID_2_)" stroke="#323232" cx="196.044" cy="250.219" rx="7.456" ry="7.311"/>
	</g>
</g>
</svg>
